<?xml version="1.0" ?><!DOCTYPE svg  PUBLIC '-//W3C//DTD SVG 1.1//EN'  'http://www.w3.org/Graphics/SVG/1.1/DTD/svg11.dtd'><svg height="1.70667in" style="shape-rendering:geometricPrecision; text-rendering:geometricPrecision; image-rendering:optimizeQuality; fill-rule:evenodd; clip-rule:evenodd" version="1.1" viewBox="0 0 12382 12382" width="1.70667in" xml:space="preserve" xmlns="http://www.w3.org/2000/svg" xmlns:xlink="http://www.w3.org/1999/xlink"><defs><style type="text/css">
   <![CDATA[
    .fil0 {fill:none}
    .fil1 {fill:white;fill-rule:nonzero}
   ]]>
  </style></defs><g id="Layer_x0020_1"><rect class="fil0" height="12382" width="12382"/><path class="fil1" d="M9232 5822c-117,-698 -615,-799 -837,-809 -68,-3 -128,-41 -165,-98 -164,-253 -372,-320 -551,-320 -85,0 -163,15 -227,32 -18,5 -37,7 -55,7 -65,0 -128,-30 -167,-84 -163,-229 -378,-291 -561,-291 -52,0 -102,5 -147,13 -11,1 -40,2 -51,2 -111,0 -222,-92 -222,-207l0 -455c0,-337 -236,-506 -488,-506 -25,0 -41,2 -65,5 -63,8 -1636,432 -1636,432 -606,155 -436,1004 108,1004 46,0 96,-6 148,-19l696 -179c18,-4 -30,-6 -13,-6 111,0 142,90 142,207l0 1122c0,189 -56,272 -209,272 -126,0 -241,-57 -359,-160 -238,-209 -450,-479 -752,-597 -77,-30 -143,-43 -213,-43 -474,0 -737,624 -213,961 602,388 1199,1277 1496,1715 188,278 662,1112 837,1369 38,57 103,87 172,87l2361 0c102,0 190,-72 205,-173l124 -784c4,-30 15,-57 32,-83 654,-995 720,-1760 610,-2414z"/></g></svg>