<?xml version="1.0" ?><!DOCTYPE svg  PUBLIC '-//W3C//DTD SVG 1.1//EN'  'http://www.w3.org/Graphics/SVG/1.1/DTD/svg11.dtd'><svg height="1.70667in" style="shape-rendering:geometricPrecision; text-rendering:geometricPrecision; image-rendering:optimizeQuality; fill-rule:evenodd; clip-rule:evenodd" version="1.1" viewBox="0 0 9597 9597" width="1.70667in" xml:space="preserve" xmlns="http://www.w3.org/2000/svg" xmlns:xlink="http://www.w3.org/1999/xlink"><defs><style type="text/css">
   <![CDATA[
    .fil0 {fill:none}
    .fil1 {fill:white;fill-rule:nonzero}
   ]]>
  </style></defs><g id="Layer_x0020_1"><rect class="fil0" height="9597" width="9597"/><path class="fil1" d="M6495 4791c-91,-536 -477,-609 -643,-615 -47,-2 -90,-26 -115,-66 -126,-198 -296,-250 -441,-250 -66,0 -127,11 -175,23 -14,4 -29,6 -43,6 -51,0 -100,-23 -131,-66 -124,-171 -285,-218 -424,-218 -37,0 -72,4 -105,9 -8,1 -17,2 -25,2 -89,0 -164,-72 -164,-164l-1 -991c0,-256 -192,-384 -384,-384 -193,0 -385,129 -385,385 1,430 2,1722 3,2112 0,65 -40,125 -100,150 -763,319 179,1749 347,1994 17,23 27,51 29,80l41 559c7,86 78,163 164,163 0,0 0,0 0,0l1842 -13c82,0 152,-67 162,-148l75 -574c3,-25 12,-49 25,-70 493,-761 531,-1428 448,-1924z"/></g></svg>